<svg width="63" height="63" viewBox="0 0 63 63" fill="none" xmlns="http://www.w3.org/2000/svg">
<path d="M62.9498 50.6969L61.8139 46.3539C61.5657 45.4039 60.7754 44.7126 59.8007 44.5925L55.7508 44.0942C55.6504 44.0819 55.5574 44.034 55.4886 43.9596L49.3279 37.2753C49.2372 37.177 49.1784 37.055 49.1581 36.9225L47.8891 28.6945C47.812 28.1946 47.3454 27.8522 46.8442 27.9288C46.3442 28.0059 46.0014 28.4738 46.0786 28.9737L47.3475 37.2016C47.4236 37.6953 47.6427 38.15 47.981 38.517L54.1414 45.201C54.5039 45.5944 54.996 45.8471 55.5271 45.9124L59.577 46.4108C59.802 46.4385 59.9842 46.5979 60.0417 46.8172L61.0215 50.5636L55.1594 48.1155C54.7349 47.9382 54.327 47.7169 53.947 47.4579L45.1706 41.476C44.9261 41.3094 44.7455 41.0612 44.6623 40.7773L41.4289 29.7538C41.7242 28.9167 41.8776 28.032 41.8776 27.1377C41.8776 27.1377 41.8761 20.4851 41.8733 20.4289C42.2129 20.578 42.5378 20.7608 42.8389 20.9792L43.3429 21.3448C44.4586 22.1543 45.2191 23.4 45.4292 24.7627C45.5978 25.944 47.4379 25.6523 47.2397 24.4833C46.9555 22.6411 45.9273 20.9566 44.4187 19.8619L43.9147 19.4964C43.0178 18.8456 41.9704 18.4169 40.8764 18.2444C40.2867 17.6745 39.485 17.3229 38.6022 17.3229H36.1179V15.392C36.1179 15.3891 36.1175 15.3862 36.1174 15.3833C36.5478 14.9062 36.9076 14.3637 37.177 13.7795C38.0087 13.5193 38.7751 12.8426 39.2646 11.906C39.6475 11.173 39.809 10.3669 39.7192 9.63614C39.6155 8.79241 39.1785 8.11134 38.5202 7.76731C38.2817 7.64278 38.0258 7.56699 37.76 7.53979V7.5249V4.91225C37.76 2.50668 35.8029 0.5495 33.3974 0.5495H29.6514C27.2459 0.5495 25.2887 2.50668 25.2887 4.91225V7.52503V7.53475C25.0062 7.55739 24.7336 7.63491 24.4801 7.76731C23.8218 8.11134 23.3848 8.79241 23.2811 9.63614C23.1912 10.3669 23.3527 11.1731 23.7357 11.906C24.2304 12.8527 25.0294 13.5425 25.8777 13.7924C26.1364 14.3498 26.4767 14.8693 26.8825 15.3296V17.323H24.3982C23.5155 17.323 22.7137 17.6747 22.1242 18.2444C21.0303 18.4168 19.9828 18.8457 19.0856 19.4965L18.5818 19.8621C17.073 20.9567 16.0447 22.6412 15.7606 24.4836L13.8421 36.9228C13.8217 37.055 13.763 37.1771 13.6723 37.2755L7.51161 43.9598C7.44308 44.0341 7.34993 44.082 7.24952 44.0943L3.19968 44.5926C2.22515 44.7126 1.43482 45.4039 1.18639 46.3539L0.0506665 50.697C-0.0809936 51.2005 0.0495591 51.7227 0.391137 52.1018C0.160916 52.7108 0.0399614 53.3581 0.0399614 54.0161C0.0399614 57.0029 2.47001 59.433 5.45685 59.433H11.7396C11.5101 59.9335 11.4463 60.5048 11.5773 61.0545C11.8085 62.1448 13.1094 62.7747 14.1078 62.2777L17.6184 60.6407C18.3995 60.2764 19.2311 60.0553 20.0904 59.9835L26.6189 59.4331H57.5437C60.5305 59.4331 62.9606 57.003 62.9606 54.0162C62.9606 53.3596 62.8386 52.7121 62.6084 52.1029C62.9506 51.7236 63.0815 51.2009 62.9498 50.6969ZM44.1387 42.9898L47.1102 45.0152C45.3868 44.7773 43.6474 44.6564 41.9057 44.6564C41.893 44.6564 41.8807 44.6577 41.8681 44.6582L41.529 44.0979C40.2901 42.0504 39.6352 39.7034 39.6352 37.3104V35.3348C39.6352 34.2662 39.8445 33.2107 40.2449 32.2271L42.9042 41.293C43.1066 41.9827 43.5449 42.5851 44.1387 42.9898ZM28.7146 17.0993C29.5288 17.779 30.5263 18.12 31.5243 18.12C32.5027 18.12 33.4805 17.7923 34.2857 17.1393V18.7116C34.2857 19.4465 33.6877 20.0446 32.9528 20.0446H30.0475C29.3126 20.0446 28.7146 19.4465 28.7146 18.7116V17.0993ZM29.6514 2.38154H33.3974C34.7927 2.38154 35.9279 3.5169 35.9279 4.91225V4.95089H27.1207V4.91225C27.1207 3.51677 28.2561 2.38154 29.6514 2.38154ZM25.3596 11.0577C25.15 10.6567 25.0553 10.22 25.0996 9.85972C25.1244 9.37307 25.4804 9.2622 25.8052 9.45342C26.0891 9.59098 26.4238 9.5729 26.6912 9.4053C26.9586 9.23784 27.1209 8.94449 27.1209 8.62912V6.78293H35.9281V8.60624C35.9281 8.91755 36.0862 9.20757 36.3479 9.37627C36.6096 9.54484 36.939 9.56908 37.2226 9.44037C37.536 9.26282 37.8779 9.39042 37.901 9.85959C37.9453 10.2199 37.8505 10.6566 37.641 11.0576C37.3101 11.6909 36.7968 12.0432 36.4607 12.064C36.0966 12.0865 35.7805 12.3229 35.6561 12.6658C35.4197 13.3171 35.0308 13.914 34.5311 14.3918L33.2944 15.5748C32.302 16.5241 30.747 16.5239 29.7547 15.5748L28.5179 14.3918C28.0185 13.9141 27.6295 13.3175 27.3932 12.666C27.2647 12.3123 26.9331 12.0731 26.5569 12.063C26.2181 12.0538 25.6981 11.7055 25.3596 11.0577ZM24.3982 19.155H26.9143C27.1307 20.6909 28.453 21.8766 30.0475 21.8766H32.9528C34.5475 21.8766 35.8697 20.691 36.086 19.155H38.6021C39.3979 19.155 40.0454 19.8025 40.0454 20.5983V27.1378C40.0454 28.2171 39.7552 29.2785 39.2058 30.2074C38.2882 31.7591 37.8032 33.5322 37.8032 35.335V37.3105C37.8032 40.0378 38.5496 42.7129 39.9615 45.0464L40.3013 45.6075L39.0996 45.7797C34.0571 46.5022 28.9435 46.5023 23.901 45.7797L22.6993 45.6075L23.0389 45.0463C24.451 42.7129 25.1973 40.0378 25.1973 37.3104V35.3348C25.1973 33.5322 24.7122 31.7591 23.7946 30.2072C23.2454 29.2782 22.955 28.2168 22.955 27.1377V20.5981C22.9549 19.8025 23.6023 19.155 24.3982 19.155ZM21.4714 44.0979L21.1323 44.6582C21.1197 44.6577 21.1074 44.6563 21.0946 44.6563C19.3517 44.6563 17.6114 44.7792 15.8869 45.0173L18.8617 42.9897C19.4555 42.585 19.8939 41.9825 20.0961 41.2928L22.7554 32.2269C23.1558 33.2104 23.3651 34.2661 23.3651 35.3347V37.3102C23.3652 39.7035 22.7104 42.0505 21.4714 44.0979ZM2.95876 46.8175C3.0161 46.5982 3.19845 46.4386 3.4235 46.411L7.47335 45.9127C8.00429 45.8474 8.49636 45.5947 8.85885 45.2014L15.0196 38.5171C15.3579 38.15 15.5768 37.6951 15.653 37.2018L17.5714 24.7628C17.7815 23.4003 18.542 22.1546 19.6578 21.3449L20.1617 20.9793C20.4628 20.7609 20.7876 20.5781 21.1274 20.4291C21.1245 20.4851 21.1231 27.1378 21.1231 27.1378C21.1231 28.0321 21.2766 28.9168 21.5719 29.7539L18.3384 40.7773C18.2551 41.0612 18.0746 41.3094 17.8301 41.476L9.05351 47.4579C8.67354 47.7169 8.26564 47.9382 7.84113 48.1154L1.97918 50.5636L2.95876 46.8175ZM1.87188 54.0161C1.87188 53.4672 1.99936 52.9298 2.23905 52.4405L7.84347 50.0997L10.9385 49.9326C13.4742 49.7956 16.0165 50.0113 18.4934 50.573C18.6465 50.6003 19.4859 50.8187 19.6256 50.8065C20.0438 50.8065 20.4216 50.5181 20.518 50.093C20.63 49.5995 20.3208 49.109 19.8275 48.997L18.8987 48.7863C16.4372 48.2279 13.9158 47.9907 11.395 48.0788L12.0417 47.6379C14.8974 46.9013 17.8367 46.5159 20.7858 46.4908C20.7886 46.4969 20.7903 46.5034 20.7933 46.5096C21.008 46.9634 21.433 47.2768 21.9299 47.3479L23.6408 47.593C26.2483 47.9666 28.8743 48.1534 31.5 48.1534C34.1259 48.1534 36.7516 47.9666 39.3591 47.593L41.0701 47.3479C41.5669 47.2767 41.9919 46.9633 42.2068 46.5097C42.2097 46.5036 42.2114 46.497 42.2144 46.4908C45.1632 46.516 48.1024 46.9013 50.9581 47.6378L51.6052 48.0788C49.0845 47.9908 46.5631 48.2279 44.1016 48.7863L31.5001 51.6447L27.2584 50.6826C25.9083 49.9248 24.1995 50.1824 23.1378 51.3274L21.5175 53.0748C21.3503 53.255 21.1397 53.3942 20.9082 53.4772L16.9925 54.881C16.1894 55.1689 15.4698 55.6142 14.8537 56.2047L13.3967 57.6009H5.45673C3.48011 57.6009 1.87188 55.9928 1.87188 54.0161ZM19.9371 58.1577C18.8622 58.2476 17.8216 58.5244 16.8441 58.9801L13.3545 60.6074C13.3097 60.3853 13.3819 60.1527 13.5462 59.9953L16.1213 57.5275C16.5504 57.1162 17.0516 56.8062 17.6108 56.6056L21.5265 55.2019C22.0334 55.0201 22.4948 54.7155 22.861 54.3206L24.4813 52.5732C25.0064 52.0011 25.8752 51.9299 26.5048 52.3637L27.9556 53.2698C28.3856 53.5384 28.849 53.7515 29.3327 53.9031L29.3948 53.9226V57.3604L19.9371 58.1577ZM57.5436 57.6009H31.2268V53.5854L44.5069 50.5731C46.9839 50.0113 49.5256 49.7957 52.0618 49.9328C52.0618 49.9328 55.1012 50.0941 55.1371 50.0917L60.762 52.4409C61.0016 52.9303 61.1285 53.4686 61.1285 54.0162C61.1285 55.9928 59.5203 57.6009 57.5436 57.6009Z" fill="#FF2625"/>
</svg>
