<svg width="63" height="63" viewBox="0 0 63 63" fill="none" xmlns="http://www.w3.org/2000/svg">
<g clip-path="url(#clip0)">
<path d="M27.1515 44.8609C27.5148 45.3394 27.9836 45.7275 28.5214 45.9952C29.0592 46.2629 29.6515 46.403 30.2523 46.4044C30.6775 46.405 31.1 46.3352 31.5024 46.1977C31.905 46.3354 32.3276 46.4054 32.7531 46.4049C33.3538 46.4035 33.9461 46.2634 34.4839 45.9957C35.0217 45.728 35.4905 45.3399 35.8539 44.8614L39.657 39.8268C41.0362 37.9937 41.7843 35.7629 41.7892 33.4688C41.7891 32.361 41.5033 31.2719 40.9595 30.3068C40.4157 29.3417 39.6322 28.5331 38.6847 27.9592C37.7371 27.3852 36.6576 27.0653 35.5504 27.0303C34.4432 26.9953 33.3456 27.2464 32.3638 27.7594V26.6579H33.1365C34.272 26.6572 35.3607 26.2059 36.1636 25.403C36.9665 24.6001 37.4179 23.5113 37.4185 22.3759C37.4185 22.1474 37.3278 21.9283 37.1662 21.7668C37.0047 21.6053 36.7856 21.5145 36.5572 21.5145H34.9231C34.2447 21.515 33.5761 21.6771 32.9727 21.9872C32.3693 22.2974 31.8485 22.7468 31.4532 23.2982C31.0373 22.7455 30.4987 22.2969 29.8799 21.9878C29.2611 21.6787 28.579 21.5175 27.8873 21.517C27.6589 21.517 27.4398 21.6077 27.2783 21.7693C27.1167 21.9308 27.026 22.1499 27.026 22.3783C27.026 22.6068 27.1167 22.8258 27.2783 22.9874C27.4398 23.1489 27.6589 23.2396 27.8873 23.2396C28.6175 23.2403 29.3175 23.5306 29.8338 24.0469C30.3501 24.5632 30.6404 25.2633 30.6411 25.9934V27.7594C29.6592 27.2464 28.5617 26.9953 27.4544 27.0303C26.3472 27.0653 25.2677 27.3852 24.3202 27.9592C23.3727 28.5331 22.5892 29.3417 22.0454 30.3068C21.5015 31.2719 21.2158 32.361 21.2157 33.4688C21.2203 35.763 21.9682 37.9939 23.3474 39.8273L27.1515 44.8609ZM34.9207 23.2391H35.5443C35.3664 23.7353 35.0396 24.1645 34.6087 24.4679C34.1777 24.7714 33.6636 24.9344 33.1365 24.9347H32.5134C32.6913 24.4387 33.018 24.0098 33.4489 23.7064C33.8797 23.403 34.3937 23.24 34.9207 23.2396V23.2391ZM27.6579 28.7492C28.8678 28.7481 30.0315 29.2139 30.9064 30.0495C31.068 30.1988 31.28 30.2816 31.5 30.2816C31.72 30.2816 31.9319 30.1988 32.0935 30.0495C32.7621 29.4118 33.6033 28.9845 34.5126 28.8206C35.422 28.6567 36.3594 28.7634 37.2086 29.1276C38.0578 29.4918 38.7813 30.0973 39.2894 30.8691C39.7974 31.6408 40.0677 32.5448 40.0665 33.4688C40.0626 35.3885 39.4368 37.2552 38.2828 38.7893L34.4787 43.8229C34.1778 44.2087 33.7571 44.4835 33.2828 44.6038C32.8086 44.7242 32.3078 44.6834 31.8593 44.4879C31.7473 44.4369 31.6257 44.4105 31.5027 44.4105C31.3796 44.4105 31.258 44.4369 31.1461 44.4879C30.6976 44.6835 30.1968 44.7244 29.7225 44.604C29.2482 44.4836 28.8275 44.2088 28.5267 43.8229L24.7235 38.7883C23.5692 37.2547 22.9429 35.3883 22.9384 33.4688C22.9398 32.2175 23.4375 31.0179 24.3223 30.1331C25.2071 29.2483 26.4067 28.7506 27.6579 28.7492Z" fill="#FF2625"/>
<path d="M50.5314 4.92188L38.5713 4.92532L37.2483 0.608836C37.1944 0.432719 37.0854 0.278539 36.9374 0.168951C36.7893 0.0593628 36.61 0.000145466 36.4259 5.4004e-08H26.5742C26.3899 -6.52265e-05 26.2104 0.0590549 26.0621 0.168658C25.9139 0.278262 25.8048 0.432558 25.7508 0.608836L24.4278 4.92532L12.4686 4.92188C11.5878 4.92292 10.7434 5.27327 10.1206 5.89609C9.49776 6.51891 9.1474 7.36334 9.14636 8.24414V59.6777C9.1474 60.5585 9.49776 61.403 10.1206 62.0258C10.7434 62.6486 11.5878 62.999 12.4686 63H50.5314C51.4122 62.999 52.2567 62.6486 52.8795 62.0258C53.5023 61.403 53.8527 60.5585 53.8537 59.6777V8.24414C53.8527 7.36334 53.5023 6.51891 52.8795 5.89609C52.2567 5.27327 51.4122 4.92292 50.5314 4.92188ZM47.2087 11.5664V56.3555H15.7914V11.5664H47.2087ZM25.0642 6.64847C25.2488 6.64885 25.4286 6.58988 25.5772 6.48025C25.7257 6.37062 25.8351 6.21615 25.8891 6.03963L27.2111 1.72266H35.789L37.111 6.03963C37.1649 6.21591 37.2741 6.37021 37.4223 6.47981C37.5705 6.58941 37.75 6.64853 37.9344 6.64847L41.9984 6.64552V9.84375H21.0002V6.64453L25.0642 6.64847ZM52.1311 59.6777C52.1305 60.1018 51.9618 60.5084 51.662 60.8083C51.3621 61.1081 50.9555 61.2768 50.5314 61.2773H12.4686C12.0445 61.2768 11.638 61.1081 11.3381 60.8083C11.0382 60.5084 10.8695 60.1018 10.869 59.6777V8.24414C10.8695 7.82006 11.0382 7.41349 11.3381 7.11362C11.638 6.81375 12.0445 6.64505 12.4686 6.64453H19.2775V9.84375H14.9301C14.7016 9.84375 14.4825 9.9345 14.321 10.096C14.1595 10.2576 14.0687 10.4766 14.0687 10.7051V57.2168C14.0687 57.4452 14.1595 57.6643 14.321 57.8258C14.4825 57.9874 14.7016 58.0781 14.9301 58.0781H48.07C48.2985 58.0781 48.5175 57.9874 48.6791 57.8258C48.8406 57.6643 48.9313 57.4452 48.9313 57.2168V10.7051C48.9313 10.4766 48.8406 10.2576 48.6791 10.096C48.5175 9.9345 48.2985 9.84375 48.07 9.84375H43.7225V6.64453H50.5314C50.9555 6.64505 51.3621 6.81375 51.662 7.11362C51.9618 7.41349 52.1305 7.82006 52.1311 8.24414V59.6777Z" fill="#FF2625"/>
<path d="M30.1768 6.64453H32.8223C33.0508 6.64453 33.2699 6.55378 33.4314 6.39225C33.5929 6.23072 33.6837 6.01164 33.6837 5.7832C33.6837 5.55476 33.5929 5.33568 33.4314 5.17415C33.2699 5.01262 33.0508 4.92188 32.8223 4.92188H30.1768C29.9484 4.92188 29.7293 5.01262 29.5678 5.17415C29.4063 5.33568 29.3155 5.55476 29.3155 5.7832C29.3155 6.01164 29.4063 6.23072 29.5678 6.39225C29.7293 6.55378 29.9484 6.64453 30.1768 6.64453Z" fill="#FF2625" stroke="#FF2625"/>
</g>
<defs>
<clipPath id="clip0">
<rect width="63" height="63" fill="white"/>
</clipPath>
</defs>
</svg>
