<svg width="58" height="58" viewBox="0 0 58 58" fill="none" xmlns="http://www.w3.org/2000/svg">
<path d="M16.4428 38.0625H24.7317L17.3351 51.212C17.2588 51.3476 17.2188 51.5006 17.2188 51.6562V55.2812C17.2188 55.4002 17.2422 55.5181 17.2877 55.628C17.3333 55.738 17.4 55.8379 17.4842 55.9221C17.5683 56.0062 17.6682 56.073 17.7782 56.1185C17.8881 56.164 18.006 56.1875 18.125 56.1875H38.9688C39.0878 56.1875 39.2056 56.164 39.3156 56.1185C39.4255 56.073 39.5254 56.0062 39.6096 55.9221C39.6937 55.8379 39.7605 55.738 39.806 55.628C39.8516 55.5181 39.875 55.4002 39.875 55.2812V53.4687C39.875 53.309 39.8328 53.152 39.7526 53.0139C39.6724 52.8757 39.5571 52.7612 39.4184 52.6819L33.8521 49.5011L40.7414 37.1004C41.3005 36.0938 41.594 34.9615 41.5942 33.8101C41.5943 32.6587 41.3011 31.5262 40.7421 30.5196C40.1832 29.5129 39.377 28.6653 38.3996 28.0567C37.4222 27.4481 36.3058 27.0985 35.1559 27.041L21.2846 26.3474L23.2205 23.4437L36.3688 19.9375H46.2188C46.4148 19.9375 46.6056 19.8739 46.7625 19.7562L50.3875 17.0375C50.5 16.9531 50.5914 16.8436 50.6543 16.7178C50.7173 16.5919 50.75 16.4532 50.75 16.3125V14.5C50.75 14.381 50.7266 14.2631 50.681 14.1532C50.6355 14.0432 50.5687 13.9433 50.4846 13.8591C50.4004 13.775 50.3005 13.7082 50.1906 13.6627C50.0806 13.6172 49.9628 13.5937 49.8438 13.5937H27.185C27.7757 12.8105 28.0948 11.856 28.0938 10.875V5.43747C28.0938 4.76427 27.9063 4.10436 27.5524 3.5317C27.1985 2.95904 26.6921 2.49625 26.0899 2.19518C25.4878 1.89411 24.8137 1.76666 24.1432 1.82712C23.4728 1.88757 22.8324 2.13354 22.2938 2.53746L19.3938 4.71248C19.2812 4.79689 19.1899 4.90635 19.1269 5.03218C19.064 5.15802 19.0313 5.29678 19.0313 5.43747V10.875C19.0302 11.856 19.3493 12.8105 19.94 13.5937H18.2118C17.4793 13.5938 16.7578 13.7714 16.1089 14.1114C15.4601 14.4513 14.9033 14.9435 14.4863 15.5457L8.88451 23.6371C7.92963 25.0164 7.37038 26.6307 7.26736 28.3051C7.16433 29.9795 7.52145 31.6502 8.30002 33.1362C9.0786 34.6221 10.2489 35.8667 11.6843 36.7351C13.1196 37.6034 14.7652 38.0625 16.4428 38.0625ZM27.0635 36.6987C26.9837 36.5621 26.8694 36.4489 26.7322 36.3701C26.5949 36.2914 26.4395 36.25 26.2813 36.25H20.4258L23.3244 29.728L31.3263 31.0617C31.9535 31.1662 32.5436 31.4297 33.0401 31.8269C33.5367 32.2242 33.9232 32.742 34.1629 33.331C34.4026 33.9201 34.4874 34.5606 34.4093 35.1918C34.3312 35.8229 34.0927 36.4234 33.7167 36.9362L24.8377 49.0439L19.9464 50.2667L27.0711 37.6005C27.1487 37.4626 27.1888 37.3068 27.1875 37.1486C27.1861 36.9904 27.1434 36.8353 27.0635 36.6987ZM30.8125 54.375H19.0313V52.3638L25.2416 50.8112L30.8125 53.9946V54.375ZM38.0625 53.9946V54.375H32.625V53.4687C32.625 53.309 32.5828 53.152 32.5026 53.0139C32.4224 52.8757 32.3071 52.7612 32.1684 52.6819L30.0818 51.4895L32.5033 50.8179L38.0625 53.9946ZM38.948 31.0556C39.4557 31.8135 39.744 32.6969 39.7808 33.6084C39.8177 34.5198 39.6018 35.4237 39.157 36.2201L32.0171 49.0719L27.8657 50.2232L26.7063 49.5608L35.1783 38.0081C35.7374 37.2457 36.0919 36.3527 36.2081 35.4144C36.3242 34.4761 36.1981 33.5237 35.8418 32.6479C35.4854 31.7721 34.9107 31.0023 34.1724 30.4116C33.4341 29.821 32.5568 29.4293 31.6242 29.2738L26.5276 28.4244L35.0654 28.8513C35.8394 28.8916 36.5933 29.1118 37.2673 29.4944C37.9413 29.8771 38.5167 30.4116 38.948 31.0556ZM48.9375 15.8593L45.9167 18.125H43.5L44.95 17.0375C45.0625 16.9531 45.1539 16.8436 45.2168 16.7178C45.2798 16.5919 45.3125 16.4532 45.3125 16.3125V15.4062H48.9375V15.8593ZM43.5 15.4062V15.8593L40.4792 18.125H36.25C36.1712 18.125 36.0927 18.1353 36.0165 18.1556L28.0938 20.2683V15.4062H43.5ZM23.3812 3.98744C23.6505 3.78549 23.9707 3.66251 24.306 3.63229C24.6412 3.60207 24.9783 3.6658 25.2793 3.81633C25.5804 3.96687 25.8336 4.19826 26.0105 4.48459C26.1875 4.77092 26.2812 5.10087 26.2813 5.43747V6.34372H23.5625C23.4435 6.34372 23.3256 6.36716 23.2157 6.4127C23.1057 6.45825 23.0058 6.52501 22.9217 6.60917L21.3746 8.15622H20.8438V5.8906L23.3812 3.98744ZM20.8438 10.875V9.96872H21.75C21.869 9.96873 21.9869 9.94529 22.0968 9.89974C22.2068 9.85419 22.3067 9.78743 22.3908 9.70327L23.9379 8.15622H26.2813V10.875C26.2813 11.596 25.9948 12.2876 25.485 12.7974C24.9751 13.3073 24.2836 13.5937 23.5625 13.5937C22.8414 13.5937 22.1499 13.3073 21.6401 12.7974C21.1302 12.2876 20.8438 11.596 20.8438 10.875ZM15.9765 16.5774C16.2267 16.2161 16.5608 15.9208 16.9501 15.7168C17.3394 15.5128 17.7723 15.4063 18.2118 15.4062H26.2813V20.7516L22.4227 21.7806C22.2096 21.8374 22.0246 21.97 21.9022 22.1535L18.6396 27.0475L10.3046 24.7744C10.328 24.7392 10.3507 24.7037 10.3748 24.6688L15.9765 16.5774ZM9.47713 26.4274L18.7928 28.9681L18.7931 28.9669C18.8224 28.9753 18.8522 28.9822 18.8822 28.9876L21.4777 29.4202L18.4423 36.25H16.4428C15.2638 36.2495 14.1021 35.9667 13.0548 35.4252C12.0075 34.8838 11.1051 34.0994 10.4231 33.1377C9.74115 32.176 9.29938 31.0649 9.1348 29.8975C8.97021 28.7301 9.0876 27.5402 9.47713 26.4274H9.47713Z" fill="#FF2625" fill-opacity="0.2"/>
</svg>
