<svg width="60" height="60" viewBox="0 0 60 60" fill="none" xmlns="http://www.w3.org/2000/svg">
<path d="M47.7722 50.3533C47.7353 50.2313 47.6738 50.1181 47.5917 50.0206C47.5095 49.9232 47.4083 49.8435 47.2942 49.7865L43.9299 48.1043L43.3839 45.9205C42.988 44.3457 42.2433 42.88 41.205 41.6316C40.1667 40.3832 38.8613 39.384 37.3851 38.7077L37.3665 38.6148C36.8247 35.9064 35.9373 33.2789 34.726 30.7966C34.9408 29.355 34.6786 27.8827 33.9793 26.6039C33.28 25.3251 32.1819 24.3098 30.8523 23.7126L30.5256 21.4252L34.4129 17.538C34.5091 17.4417 34.5833 17.3256 34.6302 17.1977C34.677 17.0699 34.6955 16.9334 34.6843 16.7977C34.673 16.662 34.6324 16.5304 34.5651 16.412C34.4979 16.2936 34.4057 16.1913 34.2949 16.1121L28.8738 12.24C28.6666 11.6903 28.3017 11.2142 27.8248 10.8712L27.4662 9.43714C27.4701 9.43975 27.4738 9.44266 27.4777 9.44527L27.7833 9.64897C28.386 10.0517 29.0622 10.3318 29.7731 10.4732L33.5661 11.2318C33.7634 11.2712 33.9682 11.2462 34.1501 11.1603C34.3321 11.0744 34.4816 10.9322 34.5765 10.7548C34.6715 10.5774 34.7068 10.3742 34.6773 10.1751C34.6479 9.9761 34.5551 9.79182 34.4129 9.64954L33.4137 8.65047C32.3611 7.59978 31.6441 6.26017 31.3538 4.80148C31.2549 4.30536 31.0341 3.84165 30.7113 3.45216C30.3885 3.06266 29.9738 2.75962 29.5046 2.57036C29.0355 2.3811 28.5266 2.31157 28.0239 2.36803C27.5212 2.42449 27.0404 2.60517 26.6249 2.89378C25.9294 2.23847 25.0096 1.87398 24.054 1.875H23.4375C22.4714 1.87616 21.5429 2.24964 20.8452 2.91777C20.1474 3.5859 19.734 4.49728 19.6909 5.46238L18.7981 8.14099C18.7511 8.28191 18.7383 8.43199 18.7607 8.57884C18.7831 8.72569 18.8401 8.86512 18.9269 8.98564C19.0138 9.10615 19.128 9.2043 19.2603 9.272C19.3925 9.33969 19.5389 9.375 19.6875 9.375H20.0455L20.724 10.7318C20.8018 10.8875 20.9215 11.0185 21.0696 11.11C21.2177 11.2015 21.3884 11.25 21.5625 11.25H22.5518C22.2083 11.5253 21.9093 11.8519 21.6652 12.2183L20.3833 14.1412C20.0269 14.6772 19.8141 15.2957 19.7654 15.9375H18.75C18.75 15.7284 18.6801 15.5254 18.5514 15.3606C18.4227 15.1958 18.2427 15.0787 18.0399 15.028L14.2899 14.0905C14.1704 14.0607 14.0463 14.0546 13.9245 14.0727C13.8027 14.0908 13.6857 14.1328 13.5801 14.1961C13.4745 14.2594 13.3825 14.3429 13.3092 14.4419C13.2359 14.5408 13.1828 14.6532 13.1529 14.7726L12.2154 18.5226C12.1582 18.7518 12.1895 18.9941 12.3031 19.2011C12.4168 19.4082 12.6044 19.5647 12.8285 19.6394L15.641 20.5769C15.7366 20.6088 15.8367 20.625 15.9375 20.625H16.7436L23.028 22.4205L23.4375 24.4679V26.7484L22.3492 27.6552C19.4876 30.038 17.0482 32.8863 15.1336 36.0801C15.044 36.2294 14.9978 36.4007 15 36.5748C15.0023 36.7489 15.053 36.9189 15.1465 37.0658L21.3812 46.8632L19.1328 50.2358C18.6888 50.9036 18.4288 51.6766 18.3789 52.477C18.3291 53.2773 18.4912 54.0766 18.849 54.7943C18.9055 54.9075 18.9845 55.008 19.081 55.0899C19.1775 55.1718 19.2895 55.2332 19.4104 55.2706C19.5313 55.308 19.6585 55.3206 19.7844 55.3075C19.9102 55.2944 20.0321 55.256 20.1428 55.1945L28.5803 50.507C28.7071 50.4365 28.8159 50.3376 28.898 50.2179C28.9801 50.0983 29.0333 49.9612 29.0534 49.8175C29.0735 49.6738 29.06 49.5274 29.0139 49.3898C28.9679 49.2522 28.8905 49.1271 28.7879 49.0245L25.2588 45.4955L24.3655 39.2424C24.3368 39.0416 24.2438 38.8555 24.1004 38.712L22.2076 36.8193L27.4466 34.1998L31.987 42.632C32.039 42.7286 32.1076 42.8153 32.1896 42.8882L40.2252 50.0309L39.4813 53.7505C38.8771 54.0975 38.3755 54.5983 38.0275 55.202C37.6795 55.8057 37.4975 56.4907 37.5 57.1875C37.5 57.4361 37.5987 57.6746 37.7745 57.8504C37.9504 58.0262 38.1888 58.125 38.4375 58.125H43.125C43.2902 58.125 43.4526 58.0813 43.5955 57.9984C43.7385 57.9154 43.8569 57.7961 43.9389 57.6526L47.6889 51.0901C47.7522 50.9794 47.7922 50.857 47.8065 50.7303C47.8208 50.6036 47.8092 50.4753 47.7722 50.3533ZM25.1435 23.4375L24.9561 22.5H26.25C26.459 22.5 26.6621 22.4301 26.8269 22.3015C26.9917 22.1728 27.1088 21.9927 27.1595 21.7899L28.1294 17.9102L28.919 23.4375L25.1435 23.4375ZM30.1941 19.105L29.6186 15.0761L32.3045 16.9946L30.1941 19.105ZM28.9912 4.40644C29.126 4.49104 29.2421 4.60237 29.3322 4.73356C29.4223 4.86474 29.4846 5.013 29.5152 5.16918C29.778 6.48919 30.3218 7.73717 31.1098 8.82832L30.1408 8.63457C29.6701 8.54098 29.2224 8.35552 28.8233 8.08881L28.5177 7.8851C28.216 7.6834 27.9535 7.42869 27.7428 7.13331C27.9071 6.33372 27.8897 5.50744 27.6921 4.71543C27.6726 4.63758 27.6501 4.56119 27.626 4.4856C27.8165 4.33095 28.0509 4.24009 28.2959 4.22589C28.5408 4.21168 28.7841 4.27484 28.9912 4.40644V4.40644ZM24.054 3.75C24.4723 3.74952 24.8787 3.88911 25.2084 4.14651C25.5381 4.40392 25.7721 4.76431 25.873 5.17021C26.0213 5.76495 26.0143 6.3878 25.8526 6.97904C24.758 6.08426 23.8327 5.00036 23.1209 3.77884C23.2254 3.76028 23.3313 3.75063 23.4375 3.75H24.054ZM24.3568 10.1287C24.3143 9.91618 24.1995 9.72493 24.0319 9.58751C23.8642 9.4501 23.6542 9.375 23.4375 9.375H22.1419L21.4635 8.01819C21.3597 7.81067 21.1827 7.64899 20.9667 7.56443L21.5143 5.92152C21.5462 5.82591 21.5624 5.72578 21.5625 5.625C21.5629 5.41328 21.5994 5.20318 21.6705 5.00373C22.6392 6.57825 23.9168 7.9403 25.4262 9.00776L25.7576 10.3336C25.7381 10.3358 25.7188 10.3389 25.6994 10.3414C25.2694 10.2902 24.834 10.307 24.4093 10.3913L24.3568 10.1287ZM21.9433 15.1813L23.0447 13.5292L22.6433 15.9375H21.6502C21.6913 15.667 21.7913 15.4088 21.9433 15.1813ZM16.875 18.75H16.0896L14.2451 18.1351L14.7446 16.1369L16.875 16.6695V16.875C16.875 17.1236 16.9737 17.3621 17.1495 17.5379C17.3254 17.7137 17.5638 17.8125 17.8125 17.8125H23.0492L23.7121 18.4755L25.0379 17.1495L24.4415 16.5532L25.017 13.1006C25.062 12.8302 25.2071 12.5865 25.4235 12.418C25.6398 12.2496 25.9116 12.1686 26.1849 12.1912C26.4581 12.2138 26.7129 12.3384 26.8986 12.5401C27.0844 12.7418 27.1875 13.006 27.1875 13.2802V13.8126C27.1874 13.9019 27.1765 13.9909 27.1548 14.0776L25.518 20.625H23.5688L17.1325 18.7861C17.0487 18.7621 16.9621 18.75 16.875 18.75ZM20.2541 52.9878C20.2025 52.3839 20.3572 51.7804 20.6928 51.2758L23.1419 47.6022L24.1898 47.0782L26.5832 49.4716L20.2541 52.9878ZM27.0754 29.5555L25.4245 30.4445L26.5573 32.5482L20.2057 35.724C20.0728 35.7904 19.9577 35.8875 19.8697 36.0072C19.7817 36.1269 19.7234 36.2657 19.6996 36.4124C19.6758 36.559 19.6872 36.7092 19.7328 36.8505C19.7785 36.9919 19.857 37.1204 19.9621 37.2255L22.5536 39.817L23.3514 45.4011L22.8369 45.6584L17.0426 36.553C18.8017 33.7373 20.9982 31.22 23.5496 29.0956L24.9751 27.9077C25.0807 27.8197 25.1657 27.7096 25.224 27.5851C25.2822 27.4607 25.3125 27.3249 25.3125 27.1875V25.3125H29.8193L29.9009 25.3451C30.944 25.7625 31.8082 26.5319 32.3434 27.5198C32.8785 28.5077 33.0509 29.6518 32.8307 30.7536C32.7898 30.9581 32.8182 31.1703 32.9115 31.3568C34.1185 33.7712 34.9984 36.3356 35.5279 38.9825L35.6432 39.5588C35.6737 39.7117 35.742 39.8546 35.8417 39.9745C35.9414 40.0944 36.0695 40.1875 36.2143 40.2454C37.5266 40.7724 38.6956 41.6025 39.6255 42.6679C40.5555 43.7333 41.2201 45.0037 41.5649 46.3752L42.0331 48.2478L41.3984 48.5651L33.5593 41.597L27.0754 29.5555ZM42.5809 56.25H39.5941C39.797 55.8436 40.127 55.5144 40.5339 55.3125L40.7318 55.2135C40.8595 55.1496 40.9709 55.0575 41.0575 54.944C41.1441 54.8306 41.2037 54.6989 41.2318 54.5589L42.0794 50.3209L43.125 49.7981L45.5693 51.0203L42.5809 56.25Z" fill="#FF2625" fill-opacity="0.2"/>
</svg>
