<svg width="48" height="48" viewBox="0 0 48 48" fill="none" xmlns="http://www.w3.org/2000/svg">
<g clip-path="url(#clip0)">
<path d="M38.1859 15.7237C38.3419 15.8797 38.5459 15.9573 38.7499 15.9573C38.9539 15.9573 39.1582 15.8793 39.3142 15.7237L44.8726 10.1653C46.4648 8.57266 46.4648 5.98099 44.8726 4.38834C43.2799 2.79532 40.6879 2.79605 39.0956 4.38834L38.7499 4.73331L38.4049 4.38834C36.8115 2.79568 34.2206 2.79568 32.6279 4.38834C31.8563 5.15994 31.4312 6.1857 31.4312 7.27664C31.4312 8.36758 31.8563 9.39371 32.6279 10.1649L38.1859 15.7237ZM33.7562 5.51663C34.2418 5.03104 34.879 4.78897 35.5162 4.78897C36.1534 4.78897 36.7914 5.0314 37.2766 5.51663L38.1859 6.4263C38.3357 6.57571 38.5386 6.65994 38.7499 6.65994C38.9616 6.65994 39.1644 6.57571 39.3142 6.4263L40.2239 5.51663C41.1951 4.54507 42.7738 4.54617 43.7443 5.51663C44.7147 6.48709 44.7147 8.06656 43.7443 9.03702L38.7499 14.031L33.7562 9.03702C33.286 8.5668 33.0267 7.94131 33.0267 7.27701C33.0271 6.61197 33.286 5.98648 33.7562 5.51663Z" fill="#FF2625"/>
<path d="M46.2329 46.2797C39.413 47.0363 34.0044 44.0165 33.9502 43.9861C33.7667 43.8814 33.5492 43.8532 33.3452 43.9092C33.2592 43.9323 24.6807 46.2317 17.7714 44.698C13.464 43.7404 9.40124 40.7063 6.43457 38.4911C6.03613 38.1937 5.65857 37.9114 5.30408 37.6525C4.81995 37.2984 4.05017 37.0039 3.37158 36.7439C3.06689 36.6275 2.64941 36.4674 2.55969 36.4114C2.48206 36.3506 2.43958 36.2613 2.43958 36.1591V34.3097C2.47803 32.8463 8.61352 10.3291 9.56494 7.46462C9.58838 7.43093 9.67993 7.36465 9.74731 7.33279L21.8894 1.78689L25.8148 6.89736C26.0085 7.16213 25.9902 7.53237 25.772 7.77663L21.8931 12.125C21.6393 12.4099 21.2119 12.4411 20.9468 12.2195L19.3783 10.7733C19.1945 10.6041 18.933 10.5481 18.688 10.5932C18.4423 10.6371 18.2225 10.8122 18.109 11.0348C17.9779 11.293 16.7903 11.6094 15.5789 11.6186L15.1841 11.5786C14.8677 11.5409 14.5608 11.7061 14.4062 11.9848C14.251 12.2635 14.2773 12.6077 14.4722 12.8604C14.8091 13.2958 15.0717 13.6455 15.2203 13.8462L15.9967 27.0434C15.5155 28.9176 15.0746 29.4501 14.9651 29.5567C14.6417 29.6588 14.407 29.961 14.407 30.3176C14.407 30.7582 14.7644 31.1156 15.205 31.1156C16.1099 31.1156 16.8789 29.9265 17.4963 27.6051C23.8424 22.8568 29.3806 27.3382 29.8149 27.7069C31.8306 29.7299 31.9554 31.0735 31.9595 31.1332C31.969 31.5653 32.3224 31.9132 32.7574 31.9132C33.198 31.9132 33.5554 31.5562 33.5554 31.1156C33.5554 30.9322 33.4888 29.3578 31.4237 27.0833C33.3712 24.689 35.5886 23.3098 38.0309 23.0095C42.2416 22.491 45.781 25.3225 45.8165 25.3507C46.1586 25.6291 46.6603 25.5778 46.9386 25.2365C47.2169 24.8955 47.1667 24.3938 46.8262 24.1151C46.6614 23.9807 42.7433 20.8288 37.8522 21.4239C34.9932 21.7707 32.4268 23.3168 30.2145 26.0231C28.4189 24.8021 23.2708 22.0387 17.5132 25.6529L16.7991 13.5163C16.7917 13.3852 16.7515 13.2581 16.683 13.1464C17.3971 13.0618 18.2474 12.8754 18.8641 12.4696L19.8921 13.417C20.849 14.2201 22.2505 14.1201 23.0833 13.1878L26.9622 8.83901C27.6777 8.03738 27.7374 6.82522 27.0918 5.94119L22.7676 0.311425C22.542 0.0173572 22.1428 -0.0826184 21.8033 0.0719226L9.09399 5.8771C8.96106 5.93533 8.28686 6.26162 8.06531 6.92812C7.6134 8.28457 0.843994 32.4263 0.843994 34.3072V36.1594C0.843994 36.7538 1.11096 37.3035 1.57568 37.6679C1.80823 37.8499 2.15576 37.9876 2.80139 38.2344C3.32874 38.4365 4.05054 38.7123 4.36218 38.9405C4.71301 39.1968 5.08581 39.4755 5.47986 39.7699C8.56226 42.0719 12.7836 45.2243 17.4257 46.2559C24.0339 47.7244 31.7914 45.949 33.454 45.5301C34.5643 46.1039 38.6381 47.9998 43.9712 47.9998C44.7582 47.9998 45.573 47.9588 46.4091 47.8654C46.847 47.817 47.1623 47.4223 47.114 46.9846C47.0649 46.5459 46.6691 46.2281 46.2329 46.2797Z" fill="#3A1212"/>
<path d="M42.3248 36.6118C42.2809 36.2126 41.9429 35.9021 41.5316 35.9021C41.0911 35.9021 40.7336 36.2595 40.7336 36.7001C40.7336 37.2329 41.1273 39.0372 46.1876 39.8802C46.2319 39.8876 46.2763 39.8912 46.3195 39.8912C46.7025 39.8912 47.0405 39.6147 47.1057 39.2247C47.1779 38.79 46.8842 38.3792 46.4498 38.3063C42.9111 37.7167 42.3721 36.718 42.3248 36.6118Z" fill="#FF2625"/>
<path d="M27.0061 40.7073C16.5562 42.9456 12.0844 35.7957 11.8995 35.4906C11.6714 35.1138 11.1825 34.9926 10.8056 35.2189C10.4277 35.4456 10.3054 35.9356 10.5321 36.3135C10.5848 36.401 11.8545 38.4852 14.5692 40.2605C16.4398 41.4833 19.2922 42.7292 23.1502 42.7292C24.4353 42.7292 25.8316 42.5911 27.3401 42.2681C27.7711 42.1758 28.0457 41.7514 27.9535 41.3207C27.8608 40.8901 27.4371 40.6143 27.0061 40.7073Z" fill="#FF2625"/>
</g>
<defs>
<clipPath id="clip0">
<rect width="48" height="48" fill="white"/>
</clipPath>
</defs>
</svg>
